<svg id="svg" version="1.1" xmlns="http://www.w3.org/2000/svg" xmlns:xlink="http://www.w3.org/1999/xlink" width="24" height="24" viewBox="50, 50, 325, 325"><g id="svgg"><path id="path0" d="M76.469 120.962 C 70.417 121.844,65.429 126.976,64.251 133.533 C 63.672 136.758,63.954 253.592,64.571 266.167 C 65.401 283.075,74.565 293.890,91.201 297.593 L 93.653 298.139 125.537 298.209 C 161.737 298.289,227.021 297.933,229.881 297.639 C 232.246 297.397,235.108 296.656,238.045 295.527 C 252.645 289.914,260.945 277.509,262.576 258.861 L 262.708 257.353 266.836 257.118 C 315.575 254.344,345.218 216.145,333.809 170.815 C 326.585 142.114,302.357 122.737,271.455 120.948 C 267.093 120.695,78.206 120.709,76.469 120.962 M274.581 131.587 C 305.940 135.929,325.714 158.471,325.734 189.905 C 325.756 222.993,299.990 246.164,262.469 246.798 C 255.785 246.911,255.789 246.911,254.651 247.670 C 253.237 248.614,252.619 249.805,252.532 251.750 C 251.985 264.081,250.474 270.220,246.529 276.150 C 242.758 281.818,235.690 286.325,229.127 287.249 C 227.120 287.531,161.697 287.894,125.937 287.820 L 94.653 287.756 92.354 287.131 C 82.620 284.482,77.289 279.224,75.457 270.465 C 74.623 266.481,74.313 239.802,74.399 179.610 L 74.463 135.032 75.006 133.927 C 75.660 132.595,76.451 131.798,77.489 131.425 C 78.780 130.962,271.205 131.120,274.581 131.587 M256.972 152.911 C 255.527 153.262,254.222 154.311,253.553 155.658 C 252.996 156.780,252.848 220.417,253.399 221.874 C 254.489 224.759,255.802 225.171,263.868 225.156 C 275.517 225.134,278.267 224.670,284.358 221.695 C 297.847 215.108,304.205 203.412,303.791 185.945 C 303.363 167.857,291.171 154.455,273.763 152.937 C 271.086 152.703,257.907 152.683,256.972 152.911 M275.257 163.608 C 288.572 166.341,295.754 178.798,292.952 194.303 C 291.201 203.989,286.201 210.009,276.951 213.567 C 275.024 214.308,273.313 214.509,266.417 214.807 L 263.468 214.934 263.468 188.998 L 263.468 163.062 268.616 163.182 C 272.011 163.261,274.271 163.406,275.257 163.608 " stroke="none" fill="#040404" fill-rule="evenodd"></path><path id="path1" d="M187.506 165.634 C 187.231 165.683,186.152 165.867,185.107 166.043 C 178.646 167.131,170.910 171.262,165.368 176.582 L 163.699 178.184 161.860 176.383 C 145.175 160.045,117.804 162.998,111.070 181.862 C 107.600 191.580,110.626 206.581,117.881 215.628 C 123.094 222.129,145.456 243.775,160.620 256.998 C 163.629 259.623,163.509 259.669,170.515 253.156 C 187.768 237.117,203.589 221.343,209.396 214.393 C 221.263 200.187,220.322 180.358,207.339 171.052 C 201.817 167.094,192.928 164.666,187.506 165.634 " stroke="none" fill="#fc5b64" fill-rule="evenodd"></path><path id="path2" d="M77.361 131.557 C 76.605 131.860,75.785 132.721,75.194 133.833 L 74.663 134.833 74.538 147.526 C 74.094 192.638,74.643 265.252,75.461 269.765 C 77.184 279.262,83.235 285.069,93.741 287.306 L 95.852 287.756 136.032 287.696 C 193.749 287.610,228.131 287.333,230.039 286.939 C 244.001 284.055,251.451 273.056,252.245 254.155 C 252.526 247.459,253.427 246.688,260.990 246.681 C 305.038 246.639,332.576 215.778,324.133 175.920 C 319.014 151.752,301.032 135.551,275.162 131.799 C 272.335 131.389,78.374 131.152,77.361 131.557 M277.713 153.295 C 293.836 156.908,304.048 170.055,304.048 187.195 C 304.048 205.897,295.741 218.253,279.338 223.950 C 276.483 224.942,273.513 225.187,264.354 225.187 L 256.945 225.187 255.759 224.583 C 254.460 223.922,253.448 222.681,253.074 221.291 C 252.937 220.781,252.886 209.913,252.921 188.475 L 252.974 156.422 253.415 155.597 C 253.950 154.596,255.418 153.265,256.315 152.968 C 257.683 152.515,275.444 152.786,277.713 153.295 M195.002 165.842 C 211.001 168.275,220.676 182.810,217.070 198.998 C 214.951 208.511,211.990 212.592,194.506 230.102 C 184.734 239.888,181.073 243.424,171.244 252.574 C 162.784 260.450,164.189 260.343,156.798 253.672 C 140.228 238.716,125.605 224.634,119.954 218.191 C 106.145 202.449,105.983 179.647,119.614 170.633 C 132.245 162.281,149.566 164.561,161.865 176.195 L 163.709 177.940 165.563 176.270 C 174.918 167.841,184.899 164.305,195.002 165.842 " stroke="none" fill="#fbfbfb" fill-rule="evenodd"></path><path id="path3" d="M74.448 140.330 C 74.448 142.804,74.477 143.816,74.512 142.579 C 74.547 141.342,74.547 139.318,74.512 138.081 C 74.477 136.844,74.448 137.856,74.448 140.330 M252.971 189.005 C 252.971 206.377,252.995 213.454,253.023 204.732 C 253.052 196.010,253.052 181.797,253.023 173.148 C 252.995 164.498,252.971 171.634,252.971 189.005 M325.692 188.306 C 325.692 188.801,325.731 189.003,325.778 188.756 C 325.826 188.508,325.826 188.103,325.778 187.856 C 325.731 187.609,325.692 187.811,325.692 188.306 M325.694 191.604 C 325.696 192.154,325.735 192.355,325.781 192.051 C 325.827 191.747,325.825 191.298,325.778 191.052 C 325.730 190.806,325.693 191.054,325.694 191.604 M74.446 226.487 C 74.446 228.521,74.475 229.353,74.512 228.336 C 74.548 227.319,74.548 225.655,74.512 224.638 C 74.475 223.621,74.446 224.453,74.446 226.487 M268.516 225.225 C 268.708 225.276,269.023 225.276,269.215 225.225 C 269.408 225.175,269.250 225.134,268.866 225.134 C 268.481 225.134,268.323 225.175,268.516 225.225 M74.636 247.576 C 74.636 248.676,74.670 249.100,74.710 248.519 C 74.751 247.938,74.750 247.039,74.709 246.520 C 74.668 246.001,74.635 246.477,74.636 247.576 M260.311 246.825 C 261.048 246.863,262.308 246.863,263.110 246.825 C 263.912 246.787,263.308 246.756,261.769 246.756 C 260.230 246.755,259.574 246.786,260.311 246.825 M252.331 252.174 C 252.333 252.724,252.371 252.925,252.417 252.621 C 252.463 252.317,252.462 251.867,252.415 251.621 C 252.367 251.376,252.330 251.624,252.331 252.174 M74.827 260.270 C 74.827 260.985,74.863 261.277,74.907 260.920 C 74.952 260.562,74.952 259.978,74.907 259.620 C 74.863 259.263,74.827 259.555,74.827 260.270 M222.647 287.405 C 223.338 287.444,224.417 287.443,225.045 287.404 C 225.673 287.364,225.107 287.332,223.788 287.333 C 222.469 287.333,221.955 287.365,222.647 287.405 M199.340 287.605 C 200.297 287.642,201.916 287.642,202.938 287.605 C 203.961 287.569,203.178 287.539,201.199 287.539 C 199.220 287.539,198.384 287.568,199.340 287.605 M154.186 287.806 C 156.475 287.838,160.163 287.838,162.382 287.806 C 164.601 287.774,162.729 287.747,158.221 287.747 C 153.713 287.748,151.898 287.774,154.186 287.806 " stroke="none" fill="#7d7c7c" fill-rule="evenodd"></path><path id="path4" d="M125.903 131.284 C 152.217 131.312,195.215 131.312,221.456 131.284 C 247.696 131.256,226.167 131.234,173.613 131.234 C 121.059 131.234,99.590 131.256,125.903 131.284 M303.921 187.206 C 303.922 188.306,303.955 188.730,303.996 188.149 C 304.036 187.568,304.036 186.669,303.995 186.150 C 303.954 185.632,303.921 186.107,303.921 187.206 M259.620 225.229 C 259.868 225.276,260.272 225.276,260.520 225.229 C 260.767 225.181,260.565 225.142,260.070 225.142 C 259.575 225.142,259.373 225.181,259.620 225.229 M267.016 225.229 C 267.264 225.276,267.669 225.276,267.916 225.229 C 268.163 225.181,267.961 225.142,267.466 225.142 C 266.972 225.142,266.769 225.181,267.016 225.229 M74.443 233.083 C 74.443 234.788,74.474 235.485,74.511 234.633 C 74.549 233.781,74.549 232.386,74.511 231.534 C 74.474 230.682,74.443 231.379,74.443 233.083 M257.221 246.821 C 257.579 246.866,258.163 246.866,258.521 246.821 C 258.878 246.777,258.586 246.741,257.871 246.741 C 257.156 246.741,256.864 246.777,257.221 246.821 M264.718 246.814 C 264.910 246.865,265.225 246.865,265.417 246.814 C 265.610 246.764,265.452 246.723,265.067 246.723 C 264.683 246.723,264.525 246.764,264.718 246.814 M74.634 251.174 C 74.633 252.164,74.667 252.594,74.709 252.130 C 74.751 251.666,74.751 250.856,74.710 250.331 C 74.669 249.805,74.634 250.185,74.634 251.174 M252.334 254.073 C 252.334 254.678,252.371 254.925,252.417 254.623 C 252.463 254.320,252.463 253.826,252.417 253.523 C 252.371 253.221,252.334 253.468,252.334 254.073 M74.827 262.669 C 74.827 263.383,74.863 263.676,74.907 263.318 C 74.952 262.961,74.952 262.376,74.907 262.019 C 74.863 261.662,74.827 261.954,74.827 262.669 M226.640 287.401 C 227.000 287.446,227.539 287.445,227.840 287.399 C 228.140 287.354,227.846 287.317,227.186 287.318 C 226.527 287.319,226.281 287.357,226.640 287.401 M206.247 287.605 C 207.154 287.642,208.638 287.642,209.545 287.605 C 210.452 287.568,209.710 287.538,207.896 287.538 C 206.082 287.538,205.340 287.568,206.247 287.605 M169.365 287.806 C 171.097 287.839,173.931 287.839,175.662 287.806 C 177.394 287.772,175.977 287.745,172.514 287.745 C 169.050 287.745,167.634 287.772,169.365 287.806 " stroke="none" fill="#6c6c6c" fill-rule="evenodd"></path><path id="path5" d="M294.045 162.169 C 294.873 163.052,295.052 163.210,295.052 163.060 C 295.052 163.028,294.625 162.601,294.103 162.111 L 293.153 161.219 294.045 162.169 " stroke="none" fill="#9c9c9c" fill-rule="evenodd"></path><path id="path6" d="M162.111 176.562 C 162.939 177.444,163.118 177.603,163.118 177.453 C 163.118 177.421,162.691 176.994,162.169 176.503 L 161.219 175.612 162.111 176.562 M164.405 177.361 L 163.818 178.011 164.468 177.424 C 164.825 177.101,165.117 176.809,165.117 176.774 C 165.117 176.620,164.952 176.756,164.405 177.361 M217.763 192.104 C 217.763 193.148,217.797 193.576,217.838 193.053 C 217.879 192.531,217.879 191.677,217.838 191.154 C 217.797 190.632,217.763 191.059,217.763 192.104 M128.236 226.887 C 130.653 229.305,132.675 231.284,132.730 231.284 C 132.785 231.284,130.853 229.305,128.436 226.887 C 126.019 224.468,123.996 222.489,123.941 222.489 C 123.886 222.489,125.819 224.468,128.236 226.887 M200.689 223.838 L 200.000 224.588 200.750 223.899 C 201.447 223.258,201.591 223.088,201.439 223.088 C 201.405 223.088,201.068 223.426,200.689 223.838 M136.432 234.883 C 136.973 235.432,137.461 235.882,137.516 235.882 C 137.571 235.882,137.173 235.432,136.632 234.883 C 136.090 234.333,135.602 233.883,135.547 233.883 C 135.492 233.883,135.890 234.333,136.432 234.883 M187.706 236.782 C 187.221 237.276,186.868 237.681,186.923 237.681 C 186.978 237.681,187.420 237.276,187.906 236.782 C 188.392 236.287,188.744 235.882,188.689 235.882 C 188.634 235.882,188.192 236.287,187.706 236.782 M140.230 238.481 C 140.659 238.921,141.056 239.280,141.111 239.280 C 141.166 239.280,140.859 238.921,140.430 238.481 C 140.000 238.041,139.604 237.681,139.549 237.681 C 139.494 237.681,139.800 238.041,140.230 238.481 M143.328 241.379 C 143.701 241.764,144.051 242.079,144.106 242.079 C 144.161 242.079,143.901 241.764,143.528 241.379 C 143.155 240.995,142.805 240.680,142.750 240.680 C 142.695 240.680,142.955 240.995,143.328 241.379 M182.196 242.129 L 181.609 242.779 182.259 242.191 C 182.864 241.644,183.000 241.479,182.846 241.479 C 182.812 241.479,182.519 241.772,182.196 242.129 M145.527 243.341 C 145.527 243.375,145.820 243.668,146.177 243.991 L 146.827 244.578 146.239 243.928 C 145.692 243.322,145.527 243.186,145.527 243.341 M148.126 245.740 C 148.126 245.774,148.418 246.066,148.776 246.389 L 149.425 246.977 148.838 246.327 C 148.291 245.721,148.126 245.585,148.126 245.740 " stroke="none" fill="#fc979d" fill-rule="evenodd"></path><path id="path7" d="M74.452 151.024 C 74.452 154.433,74.479 155.855,74.512 154.185 C 74.546 152.516,74.546 149.727,74.512 147.988 C 74.479 146.250,74.452 147.616,74.452 151.024 M325.688 190.005 C 325.690 190.445,325.731 190.601,325.779 190.352 C 325.826 190.104,325.825 189.744,325.775 189.553 C 325.724 189.362,325.685 189.565,325.688 190.005 M74.450 217.591 C 74.450 220.450,74.478 221.591,74.512 220.128 C 74.547 218.665,74.546 216.326,74.512 214.931 C 74.478 213.535,74.450 214.733,74.450 217.591 M74.637 243.378 C 74.638 244.588,74.671 245.057,74.711 244.420 C 74.750 243.784,74.750 242.795,74.710 242.222 C 74.670 241.648,74.637 242.169,74.637 243.378 M74.830 257.471 C 74.830 258.296,74.865 258.633,74.908 258.221 C 74.951 257.809,74.951 257.134,74.908 256.722 C 74.865 256.309,74.830 256.647,74.830 257.471 M217.841 287.404 C 218.528 287.443,219.653 287.443,220.340 287.404 C 221.027 287.365,220.465 287.333,219.090 287.333 C 217.716 287.333,217.154 287.365,217.841 287.404 M191.154 287.605 C 192.336 287.641,194.270 287.641,195.452 287.605 C 196.634 287.570,195.667 287.541,193.303 287.541 C 190.940 287.541,189.973 287.570,191.154 287.605 M131.699 287.806 C 135.142 287.837,140.719 287.837,144.092 287.806 C 147.465 287.775,144.648 287.750,137.831 287.750 C 131.014 287.750,128.255 287.775,131.699 287.806 " stroke="none" fill="#c5bcbc" fill-rule="evenodd"></path><path id="path8" d="M116.131 173.463 L 115.442 174.213 116.192 173.524 C 116.890 172.883,117.033 172.714,116.881 172.714 C 116.847 172.714,116.510 173.051,116.131 173.463 M186.096 238.431 L 185.407 239.180 186.157 238.492 C 186.855 237.850,186.998 237.681,186.846 237.681 C 186.812 237.681,186.475 238.018,186.096 238.431 " stroke="none" fill="#cccccc" fill-rule="evenodd"></path></g></svg>
